# This file uses centimeters as units for non-parametric coordinates.

mtllib hexagon.mtl
g default
v 3.680853 -0.429926 -6.375421
v -3.680851 -0.429926 -6.375423
v -7.361703 -0.429926 -0.000001
v -3.680852 -0.429926 6.375422
v 3.680851 -0.429926 6.375422
v 7.361703 -0.429926 0.000000
v 3.680853 0.429926 -6.375421
v -3.680851 0.429926 -6.375423
v -7.361703 0.429926 -0.000001
v -3.680852 0.429926 6.375422
v 3.680851 0.429926 6.375422
v 7.361703 0.429926 0.000000
v 0.000000 -0.429926 0.000000
v 0.000000 0.429926 0.000000
vt 0.578125 0.020934
vt 0.421875 0.020934
vt 0.343750 0.156250
vt 0.421875 0.291566
vt 0.578125 0.291566
vt 0.656250 0.156250
vt 0.375000 0.312500
vt 0.416667 0.312500
vt 0.458333 0.312500
vt 0.500000 0.312500
vt 0.541667 0.312500
vt 0.583333 0.312500
vt 0.625000 0.312500
vt 0.375000 0.688440
vt 0.416667 0.688440
vt 0.458333 0.688440
vt 0.500000 0.688440
vt 0.541667 0.688440
vt 0.583333 0.688440
vt 0.625000 0.688440
vt 0.578125 0.708434
vt 0.421875 0.708434
vt 0.343750 0.843750
vt 0.421875 0.979066
vt 0.578125 0.979066
vt 0.656250 0.843750
vt 0.500000 0.150000
vt 0.500000 0.837500
vn 0.000000 0.000000 -1.000000
vn 0.000000 0.000000 -1.000000
vn 0.000000 0.000000 -1.000000
vn 0.000000 0.000000 -1.000000
vn -0.866025 0.000000 -0.500000
vn -0.866025 0.000000 -0.500000
vn -0.866025 0.000000 -0.500000
vn -0.866025 0.000000 -0.500000
vn -0.866025 0.000000 0.500000
vn -0.866025 0.000000 0.500000
vn -0.866025 0.000000 0.500000
vn -0.866025 0.000000 0.500000
vn -0.000000 0.000000 1.000000
vn -0.000000 0.000000 1.000000
vn -0.000000 0.000000 1.000000
vn -0.000000 0.000000 1.000000
vn 0.866025 0.000000 0.500000
vn 0.866025 0.000000 0.500000
vn 0.866025 0.000000 0.500000
vn 0.866025 0.000000 0.500000
vn 0.866025 0.000000 -0.500000
vn 0.866025 0.000000 -0.500000
vn 0.866025 0.000000 -0.500000
vn 0.866025 0.000000 -0.500000
vn 0.000000 -1.000000 0.000000
vn 0.000000 -1.000000 0.000000
vn 0.000000 -1.000000 0.000000
vn 0.000000 -1.000000 -0.000000
vn 0.000000 -1.000000 -0.000000
vn 0.000000 -1.000000 0.000000
vn 0.000000 -1.000000 0.000000
vn 0.000000 1.000000 0.000000
vn 0.000000 1.000000 0.000000
vn 0.000000 1.000000 0.000000
vn 0.000000 1.000000 0.000000
vn 0.000000 1.000000 0.000000
vn 0.000000 1.000000 0.000000
vn 0.000000 1.000000 0.000000
s off
g pCylinder1
usemtl initialShadingGroup
f 1/7/1 2/8/2 8/15/3 7/14/4
f 2/8/5 3/9/6 9/16/7 8/15/8
f 3/9/9 4/10/10 10/17/11 9/16/12
f 4/10/13 5/11/14 11/18/15 10/17/16
f 5/11/17 6/12/18 12/19/19 11/18/20
f 6/12/21 1/13/22 7/20/23 12/19/24
s 1
f 2/2/25 1/1/26 13/27/27
f 3/3/28 2/2/25 13/27/27
f 4/4/29 3/3/28 13/27/27
f 5/5/30 4/4/29 13/27/27
f 6/6/31 5/5/30 13/27/27
f 1/1/26 6/6/31 13/27/27
s 2
f 7/25/32 8/24/33 14/28/34
f 8/24/33 9/23/35 14/28/34
f 9/23/35 10/22/36 14/28/34
f 10/22/36 11/21/37 14/28/34
f 11/21/37 12/26/38 14/28/34
f 12/26/38 7/25/32 14/28/34
