# This file uses centimeters as units for non-parametric coordinates.

mtllib 2cilinders.mtl
g default
v -0.012240 0.003453 0.027451
v -0.026574 0.003454 0.012684
v -0.046847 0.003793 0.009159
v -0.065315 0.004341 0.018223
v -0.074925 0.004889 0.036413
v -0.072004 0.005227 0.056781
v -0.057671 0.005227 0.071548
v -0.037398 0.004887 0.075073
v -0.018930 0.004339 0.066009
v -0.009320 0.003791 0.047819
v -0.042125 0.004225 0.042118
v -0.042127 0.004097 0.042121
v 0.072535 0.000157 -0.054151
v 0.058201 0.000157 -0.068919
v 0.037928 0.000497 -0.072444
v 0.019460 0.001045 -0.063380
v 0.009851 0.001593 -0.045190
v 0.012771 0.001931 -0.024822
v 0.027104 0.001930 -0.010054
v 0.047377 0.001591 -0.006529
v 0.065845 0.001043 -0.015593
v 0.075455 0.000495 -0.033783
v 0.042651 0.000929 -0.039484
v 0.042648 0.000801 -0.039482
vt 0.626409 0.935591
vt 0.548284 0.992353
vt 0.500000 0.837500
vt 0.451716 0.992353
vt 0.373591 0.935591
vt 0.343750 0.843750
vt 0.373591 0.751909
vt 0.451716 0.695147
vt 0.548284 0.695147
vt 0.626409 0.751909
vt 0.656250 0.843750
vt 0.626409 0.935591
vt 0.548284 0.992353
vt 0.500000 0.837500
vt 0.451716 0.992353
vt 0.373591 0.935591
vt 0.343750 0.843750
vt 0.373591 0.751909
vt 0.451716 0.695147
vt 0.548284 0.695147
vt 0.626409 0.751909
vt 0.656250 0.843750
vt 0.626409 0.935591
vt 0.548284 0.992353
vt 0.500000 0.837500
vt 0.451716 0.992353
vt 0.373591 0.935591
vt 0.343750 0.843750
vt 0.373591 0.751909
vt 0.451716 0.695147
vt 0.548284 0.695147
vt 0.626409 0.751909
vt 0.656250 0.843750
vt 0.626409 0.935591
vt 0.548284 0.992353
vt 0.500000 0.837500
vt 0.451716 0.992353
vt 0.373591 0.935591
vt 0.343750 0.843750
vt 0.373591 0.751909
vt 0.451716 0.695147
vt 0.548284 0.695147
vt 0.626409 0.751909
vt 0.656250 0.843750
vn 0.017035 0.999694 -0.017965
vn 0.018513 0.999693 -0.016441
vn 0.020118 0.999608 -0.019478
vn 0.018513 0.999693 -0.016441
vn 0.020606 0.999658 -0.016078
vn 0.020118 0.999608 -0.019478
vn 0.020606 0.999658 -0.016078
vn 0.022510 0.999602 -0.017013
vn 0.020118 0.999608 -0.019478
vn 0.022510 0.999602 -0.017013
vn 0.023502 0.999545 -0.018889
vn 0.020118 0.999608 -0.019478
vn 0.023502 0.999545 -0.018889
vn 0.023201 0.999511 -0.020990
vn 0.020118 0.999608 -0.019478
vn 0.023201 0.999511 -0.020990
vn 0.021722 0.999511 -0.022514
vn 0.020118 0.999608 -0.019478
vn 0.021722 0.999511 -0.022514
vn 0.019630 0.999546 -0.022878
vn 0.020118 0.999608 -0.019478
vn 0.019630 0.999546 -0.022878
vn 0.017725 0.999602 -0.021942
vn 0.020118 0.999608 -0.019478
vn 0.017725 0.999602 -0.021942
vn 0.016734 0.999659 -0.020066
vn 0.020118 0.999608 -0.019478
vn 0.016734 0.999659 -0.020066
vn 0.017035 0.999694 -0.017965
vn 0.020118 0.999608 -0.019478
vn -0.015032 -0.999582 0.024717
vn -0.019082 -0.999461 0.026704
vn -0.020118 -0.999608 0.019478
vn -0.019082 -0.999461 0.026704
vn -0.023527 -0.999387 0.025931
vn -0.020118 -0.999608 0.019478
vn -0.023527 -0.999387 0.025931
vn -0.026670 -0.999387 0.022693
vn -0.020118 -0.999608 0.019478
vn -0.026670 -0.999387 0.022693
vn -0.027310 -0.999461 0.018227
vn -0.020118 -0.999608 0.019478
vn -0.027310 -0.999461 0.018227
vn -0.025203 -0.999581 0.014238
vn -0.020118 -0.999608 0.019478
vn -0.025203 -0.999581 0.014238
vn -0.021153 -0.999701 0.012251
vn -0.020118 -0.999608 0.019478
vn -0.021153 -0.999701 0.012251
vn -0.016709 -0.999776 0.013024
vn -0.020118 -0.999608 0.019478
vn -0.016709 -0.999776 0.013024
vn -0.013565 -0.999776 0.016261
vn -0.020118 -0.999608 0.019478
vn -0.013565 -0.999776 0.016261
vn -0.012925 -0.999702 0.020728
vn -0.020118 -0.999608 0.019478
vn -0.012925 -0.999702 0.020728
vn -0.015032 -0.999582 0.024717
vn -0.020118 -0.999608 0.019478
vn 0.017035 0.999694 -0.017965
vn 0.018513 0.999693 -0.016441
vn 0.020118 0.999608 -0.019478
vn 0.018513 0.999693 -0.016441
vn 0.020606 0.999658 -0.016078
vn 0.020118 0.999608 -0.019478
vn 0.020606 0.999658 -0.016078
vn 0.022510 0.999602 -0.017013
vn 0.020118 0.999608 -0.019478
vn 0.022510 0.999602 -0.017013
vn 0.023502 0.999545 -0.018889
vn 0.020118 0.999608 -0.019478
vn 0.023502 0.999545 -0.018889
vn 0.023201 0.999511 -0.020990
vn 0.020118 0.999608 -0.019478
vn 0.023201 0.999511 -0.020990
vn 0.021722 0.999511 -0.022514
vn 0.020118 0.999608 -0.019478
vn 0.021722 0.999511 -0.022514
vn 0.019630 0.999546 -0.022878
vn 0.020118 0.999608 -0.019478
vn 0.019630 0.999546 -0.022878
vn 0.017725 0.999602 -0.021942
vn 0.020118 0.999608 -0.019478
vn 0.017725 0.999602 -0.021942
vn 0.016734 0.999659 -0.020066
vn 0.020118 0.999608 -0.019478
vn 0.016734 0.999659 -0.020066
vn 0.017035 0.999694 -0.017965
vn 0.020118 0.999608 -0.019478
vn -0.015032 -0.999582 0.024717
vn -0.019082 -0.999461 0.026704
vn -0.020118 -0.999608 0.019478
vn -0.019082 -0.999461 0.026704
vn -0.023527 -0.999387 0.025931
vn -0.020118 -0.999608 0.019478
vn -0.023527 -0.999387 0.025931
vn -0.026670 -0.999387 0.022693
vn -0.020118 -0.999608 0.019478
vn -0.026670 -0.999387 0.022693
vn -0.027310 -0.999461 0.018227
vn -0.020118 -0.999608 0.019478
vn -0.027310 -0.999461 0.018227
vn -0.025203 -0.999581 0.014238
vn -0.020118 -0.999608 0.019478
vn -0.025203 -0.999581 0.014238
vn -0.021153 -0.999701 0.012251
vn -0.020118 -0.999608 0.019478
vn -0.021153 -0.999701 0.012251
vn -0.016709 -0.999776 0.013024
vn -0.020118 -0.999608 0.019478
vn -0.016709 -0.999776 0.013024
vn -0.013565 -0.999776 0.016261
vn -0.020118 -0.999608 0.019478
vn -0.013565 -0.999776 0.016261
vn -0.012925 -0.999702 0.020728
vn -0.020118 -0.999608 0.019478
vn -0.012925 -0.999702 0.020728
vn -0.015032 -0.999582 0.024717
vn -0.020118 -0.999608 0.019478
s off
g pCylinder4
usemtl initialShadingGroup
f 1/1/1 2/2/2 11/3/3
f 2/2/4 3/4/5 11/3/6
f 3/4/7 4/5/8 11/3/9
f 4/5/10 5/6/11 11/3/12
f 5/6/13 6/7/14 11/3/15
f 6/7/16 7/8/17 11/3/18
f 7/8/19 8/9/20 11/3/21
f 8/9/22 9/10/23 11/3/24
f 9/10/25 10/11/26 11/3/27
f 10/11/28 1/1/29 11/3/30
f 9/12/31 8/13/32 12/14/33
f 8/13/34 7/15/35 12/14/36
f 7/15/37 6/16/38 12/14/39
f 6/16/40 5/17/41 12/14/42
f 5/17/43 4/18/44 12/14/45
f 4/18/46 3/19/47 12/14/48
f 3/19/49 2/20/50 12/14/51
f 2/20/52 1/21/53 12/14/54
f 1/21/55 10/22/56 12/14/57
f 10/22/58 9/12/59 12/14/60
f 13/23/61 14/24/62 23/25/63
f 14/24/64 15/26/65 23/25/66
f 15/26/67 16/27/68 23/25/69
f 16/27/70 17/28/71 23/25/72
f 17/28/73 18/29/74 23/25/75
f 18/29/76 19/30/77 23/25/78
f 19/30/79 20/31/80 23/25/81
f 20/31/82 21/32/83 23/25/84
f 21/32/85 22/33/86 23/25/87
f 22/33/88 13/23/89 23/25/90
f 21/34/91 20/35/92 24/36/93
f 20/35/94 19/37/95 24/36/96
f 19/37/97 18/38/98 24/36/99
f 18/38/100 17/39/101 24/36/102
f 17/39/103 16/40/104 24/36/105
f 16/40/106 15/41/107 24/36/108
f 15/41/109 14/42/110 24/36/111
f 14/42/112 13/43/113 24/36/114
f 13/43/115 22/44/116 24/36/117
f 22/44/118 21/34/119 24/36/120
