# This file uses centimeters as units for non-parametric coordinates.

mtllib circlesInACurve.mtl
g default
v -0.033093 0.000561 0.001750
v -0.035750 0.000561 -0.000181
v -0.039036 0.000561 -0.000181
v -0.041694 0.000561 0.001750
v -0.042709 0.000561 0.004875
v -0.041694 0.000561 0.007999
v -0.039036 0.000561 0.009930
v -0.035750 0.000561 0.009930
v -0.033093 0.000561 0.007999
v -0.032077 0.000561 0.004875
v -0.037393 0.000542 0.004875
v -0.037393 0.000522 0.004875
v -0.017342 0.000561 0.055676
v -0.020000 0.000561 0.053744
v -0.023285 0.000561 0.053744
v -0.025943 0.000561 0.055676
v -0.026958 0.000561 0.058800
v -0.025943 0.000561 0.061925
v -0.023285 0.000561 0.063856
v -0.020000 0.000561 0.063856
v -0.017342 0.000561 0.061925
v -0.016327 0.000561 0.058800
v -0.021643 0.000542 0.058800
v -0.021643 0.000522 0.058800
v -0.033777 0.000561 0.035253
v -0.036434 0.000561 0.033321
v -0.039719 0.000561 0.033321
v -0.042378 0.000561 0.035253
v -0.043392 0.000561 0.038377
v -0.042378 0.000561 0.041502
v -0.039719 0.000561 0.043433
v -0.036434 0.000561 0.043433
v -0.033777 0.000561 0.041502
v -0.032761 0.000561 0.038377
v -0.038077 0.000542 0.038377
v -0.038077 0.000522 0.038377
v -0.001986 0.000561 -0.053691
v -0.004644 0.000561 -0.055622
v -0.007929 0.000561 -0.055622
v -0.010587 0.000561 -0.053691
v -0.011602 0.000561 -0.050566
v -0.010587 0.000561 -0.047442
v -0.007929 0.000561 -0.045511
v -0.004644 0.000561 -0.045511
v -0.001986 0.000561 -0.047442
v -0.000970 0.000561 -0.050566
v -0.006286 0.000542 -0.050566
v -0.006286 0.000522 -0.050566
v -0.020614 0.000561 -0.030073
v -0.023272 0.000561 -0.032004
v -0.026557 0.000561 -0.032004
v -0.029215 0.000561 -0.030073
v -0.030230 0.000561 -0.026948
v -0.029215 0.000561 -0.023824
v -0.026557 0.000561 -0.021893
v -0.023272 0.000561 -0.021893
v -0.020614 0.000561 -0.023824
v -0.019599 0.000561 -0.026948
v -0.024914 0.000542 -0.026948
v -0.024914 0.000522 -0.026948
vt 0.626409 0.935591
vt 0.548284 0.992353
vt 0.500000 0.837500
vt 0.451716 0.992353
vt 0.373591 0.935591
vt 0.343750 0.843750
vt 0.373591 0.751909
vt 0.451716 0.695147
vt 0.548284 0.695147
vt 0.626409 0.751909
vt 0.656250 0.843750
vt 0.626409 0.935591
vt 0.548284 0.992353
vt 0.500000 0.837500
vt 0.451716 0.992353
vt 0.373591 0.935591
vt 0.343750 0.843750
vt 0.373591 0.751909
vt 0.451716 0.695147
vt 0.548284 0.695147
vt 0.626409 0.751909
vt 0.656250 0.843750
vt 0.626409 0.935591
vt 0.548284 0.992353
vt 0.500000 0.837500
vt 0.451716 0.992353
vt 0.373591 0.935591
vt 0.343750 0.843750
vt 0.373591 0.751909
vt 0.451716 0.695147
vt 0.548284 0.695147
vt 0.626409 0.751909
vt 0.656250 0.843750
vt 0.626409 0.935591
vt 0.548284 0.992353
vt 0.500000 0.837500
vt 0.451716 0.992353
vt 0.373591 0.935591
vt 0.343750 0.843750
vt 0.373591 0.751909
vt 0.451716 0.695147
vt 0.548284 0.695147
vt 0.626409 0.751909
vt 0.656250 0.843750
vt 0.626409 0.935591
vt 0.548284 0.992353
vt 0.500000 0.837500
vt 0.451716 0.992353
vt 0.373591 0.935591
vt 0.343750 0.843750
vt 0.373591 0.751909
vt 0.451716 0.695147
vt 0.548284 0.695147
vt 0.626409 0.751909
vt 0.656250 0.843750
vt 0.626409 0.935591
vt 0.548284 0.992353
vt 0.500000 0.837500
vt 0.451716 0.992353
vt 0.373591 0.935591
vt 0.343750 0.843750
vt 0.373591 0.751909
vt 0.451716 0.695147
vt 0.548284 0.695147
vt 0.626409 0.751909
vt 0.656250 0.843750
vt 0.626409 0.935591
vt 0.548284 0.992353
vt 0.500000 0.837500
vt 0.451716 0.992353
vt 0.373591 0.935591
vt 0.343750 0.843750
vt 0.373591 0.751909
vt 0.451716 0.695147
vt 0.548284 0.695147
vt 0.626409 0.751909
vt 0.656250 0.843750
vt 0.626409 0.935591
vt 0.548284 0.992353
vt 0.500000 0.837500
vt 0.451716 0.992353
vt 0.373591 0.935591
vt 0.343750 0.843750
vt 0.373591 0.751909
vt 0.451716 0.695147
vt 0.548284 0.695147
vt 0.626409 0.751909
vt 0.656250 0.843750
vt 0.626409 0.935591
vt 0.548284 0.992353
vt 0.500000 0.837500
vt 0.451716 0.992353
vt 0.373591 0.935591
vt 0.343750 0.843750
vt 0.373591 0.751909
vt 0.451716 0.695147
vt 0.548284 0.695147
vt 0.626409 0.751909
vt 0.656250 0.843750
vt 0.626409 0.935591
vt 0.548284 0.992353
vt 0.500000 0.837500
vt 0.451716 0.992353
vt 0.373591 0.935591
vt 0.343750 0.843750
vt 0.373591 0.751909
vt 0.451716 0.695147
vt 0.548284 0.695147
vt 0.626409 0.751909
vt 0.656250 0.843750
vn -0.002779 0.999994 0.002019
vn -0.001062 0.999994 0.003267
vn 0.000000 1.000000 0.000000
vn -0.001062 0.999994 0.003267
vn 0.001062 0.999994 0.003267
vn 0.000000 1.000000 0.000000
vn 0.001062 0.999994 0.003267
vn 0.002779 0.999994 0.002019
vn 0.000000 1.000000 0.000000
vn 0.002779 0.999994 0.002019
vn 0.003435 0.999994 0.000000
vn 0.000000 1.000000 0.000000
vn 0.003435 0.999994 0.000000
vn 0.002779 0.999994 -0.002019
vn 0.000000 1.000000 0.000000
vn 0.002779 0.999994 -0.002019
vn 0.001062 0.999994 -0.003267
vn 0.000000 1.000000 0.000000
vn 0.001062 0.999994 -0.003267
vn -0.001062 0.999994 -0.003267
vn 0.000000 1.000000 0.000000
vn -0.001062 0.999994 -0.003267
vn -0.002779 0.999994 -0.002019
vn 0.000000 1.000000 0.000000
vn -0.002779 0.999994 -0.002019
vn -0.003435 0.999994 0.000000
vn 0.000000 1.000000 0.000000
vn -0.003435 0.999994 0.000000
vn -0.002779 0.999994 0.002019
vn 0.000000 1.000000 0.000000
vn 0.005907 -0.999973 0.004292
vn 0.002256 -0.999973 0.006944
vn 0.000000 -1.000000 0.000000
vn 0.002256 -0.999973 0.006944
vn -0.002256 -0.999973 0.006944
vn 0.000000 -1.000000 0.000000
vn -0.002256 -0.999973 0.006944
vn -0.005907 -0.999973 0.004292
vn 0.000000 -1.000000 0.000000
vn -0.005907 -0.999973 0.004292
vn -0.007301 -0.999973 0.000000
vn 0.000000 -1.000000 0.000000
vn -0.007301 -0.999973 0.000000
vn -0.005907 -0.999973 -0.004292
vn 0.000000 -1.000000 0.000000
vn -0.005907 -0.999973 -0.004292
vn -0.002256 -0.999973 -0.006944
vn 0.000000 -1.000000 0.000000
vn -0.002256 -0.999973 -0.006944
vn 0.002256 -0.999973 -0.006944
vn 0.000000 -1.000000 0.000000
vn 0.002256 -0.999973 -0.006944
vn 0.005907 -0.999973 -0.004292
vn 0.000000 -1.000000 0.000000
vn 0.005907 -0.999973 -0.004292
vn 0.007301 -0.999973 0.000000
vn 0.000000 -1.000000 0.000000
vn 0.007301 -0.999973 0.000000
vn 0.005907 -0.999973 0.004292
vn 0.000000 -1.000000 0.000000
vn -0.002779 0.999994 0.002019
vn -0.001062 0.999994 0.003267
vn 0.000000 1.000000 0.000000
vn -0.001062 0.999994 0.003267
vn 0.001062 0.999994 0.003267
vn 0.000000 1.000000 0.000000
vn 0.001062 0.999994 0.003267
vn 0.002779 0.999994 0.002019
vn 0.000000 1.000000 0.000000
vn 0.002779 0.999994 0.002019
vn 0.003435 0.999994 0.000000
vn 0.000000 1.000000 0.000000
vn 0.003435 0.999994 0.000000
vn 0.002779 0.999994 -0.002019
vn 0.000000 1.000000 0.000000
vn 0.002779 0.999994 -0.002019
vn 0.001062 0.999994 -0.003267
vn 0.000000 1.000000 0.000000
vn 0.001062 0.999994 -0.003267
vn -0.001062 0.999994 -0.003267
vn 0.000000 1.000000 0.000000
vn -0.001062 0.999994 -0.003267
vn -0.002779 0.999994 -0.002019
vn 0.000000 1.000000 0.000000
vn -0.002779 0.999994 -0.002019
vn -0.003435 0.999994 0.000000
vn 0.000000 1.000000 0.000000
vn -0.003435 0.999994 0.000000
vn -0.002779 0.999994 0.002019
vn 0.000000 1.000000 0.000000
vn 0.005907 -0.999973 0.004292
vn 0.002256 -0.999973 0.006944
vn 0.000000 -1.000000 0.000000
vn 0.002256 -0.999973 0.006944
vn -0.002256 -0.999973 0.006944
vn 0.000000 -1.000000 0.000000
vn -0.002256 -0.999973 0.006944
vn -0.005907 -0.999973 0.004292
vn 0.000000 -1.000000 0.000000
vn -0.005907 -0.999973 0.004292
vn -0.007301 -0.999973 0.000000
vn 0.000000 -1.000000 0.000000
vn -0.007301 -0.999973 0.000000
vn -0.005907 -0.999973 -0.004292
vn 0.000000 -1.000000 0.000000
vn -0.005907 -0.999973 -0.004292
vn -0.002256 -0.999973 -0.006944
vn 0.000000 -1.000000 0.000000
vn -0.002256 -0.999973 -0.006944
vn 0.002256 -0.999973 -0.006944
vn 0.000000 -1.000000 0.000000
vn 0.002256 -0.999973 -0.006944
vn 0.005907 -0.999973 -0.004292
vn 0.000000 -1.000000 0.000000
vn 0.005907 -0.999973 -0.004292
vn 0.007301 -0.999973 0.000000
vn 0.000000 -1.000000 0.000000
vn 0.007301 -0.999973 0.000000
vn 0.005907 -0.999973 0.004292
vn 0.000000 -1.000000 0.000000
vn -0.002779 0.999994 0.002019
vn -0.001062 0.999994 0.003267
vn 0.000000 1.000000 0.000000
vn -0.001062 0.999994 0.003267
vn 0.001062 0.999994 0.003267
vn 0.000000 1.000000 0.000000
vn 0.001062 0.999994 0.003267
vn 0.002779 0.999994 0.002019
vn 0.000000 1.000000 0.000000
vn 0.002779 0.999994 0.002019
vn 0.003435 0.999994 0.000000
vn 0.000000 1.000000 0.000000
vn 0.003435 0.999994 0.000000
vn 0.002779 0.999994 -0.002019
vn 0.000000 1.000000 0.000000
vn 0.002779 0.999994 -0.002019
vn 0.001062 0.999994 -0.003267
vn 0.000000 1.000000 0.000000
vn 0.001062 0.999994 -0.003267
vn -0.001062 0.999994 -0.003267
vn 0.000000 1.000000 0.000000
vn -0.001062 0.999994 -0.003267
vn -0.002779 0.999994 -0.002019
vn 0.000000 1.000000 0.000000
vn -0.002779 0.999994 -0.002019
vn -0.003435 0.999994 0.000000
vn 0.000000 1.000000 0.000000
vn -0.003435 0.999994 0.000000
vn -0.002779 0.999994 0.002019
vn 0.000000 1.000000 0.000000
vn 0.005907 -0.999973 0.004292
vn 0.002256 -0.999973 0.006944
vn 0.000000 -1.000000 0.000000
vn 0.002256 -0.999973 0.006944
vn -0.002256 -0.999973 0.006944
vn 0.000000 -1.000000 0.000000
vn -0.002256 -0.999973 0.006944
vn -0.005907 -0.999973 0.004292
vn 0.000000 -1.000000 0.000000
vn -0.005907 -0.999973 0.004292
vn -0.007301 -0.999973 0.000000
vn 0.000000 -1.000000 0.000000
vn -0.007301 -0.999973 0.000000
vn -0.005907 -0.999973 -0.004292
vn 0.000000 -1.000000 0.000000
vn -0.005907 -0.999973 -0.004292
vn -0.002256 -0.999973 -0.006944
vn 0.000000 -1.000000 0.000000
vn -0.002256 -0.999973 -0.006944
vn 0.002256 -0.999973 -0.006944
vn 0.000000 -1.000000 0.000000
vn 0.002256 -0.999973 -0.006944
vn 0.005907 -0.999973 -0.004292
vn 0.000000 -1.000000 0.000000
vn 0.005907 -0.999973 -0.004292
vn 0.007301 -0.999973 0.000000
vn 0.000000 -1.000000 0.000000
vn 0.007301 -0.999973 0.000000
vn 0.005907 -0.999973 0.004292
vn 0.000000 -1.000000 0.000000
vn -0.002779 0.999994 0.002019
vn -0.001062 0.999994 0.003267
vn 0.000000 1.000000 0.000000
vn -0.001062 0.999994 0.003267
vn 0.001062 0.999994 0.003267
vn 0.000000 1.000000 0.000000
vn 0.001062 0.999994 0.003267
vn 0.002779 0.999994 0.002019
vn 0.000000 1.000000 0.000000
vn 0.002779 0.999994 0.002019
vn 0.003435 0.999994 0.000000
vn 0.000000 1.000000 0.000000
vn 0.003435 0.999994 0.000000
vn 0.002779 0.999994 -0.002019
vn 0.000000 1.000000 0.000000
vn 0.002779 0.999994 -0.002019
vn 0.001062 0.999994 -0.003267
vn 0.000000 1.000000 0.000000
vn 0.001062 0.999994 -0.003267
vn -0.001062 0.999994 -0.003267
vn 0.000000 1.000000 0.000000
vn -0.001062 0.999994 -0.003267
vn -0.002779 0.999994 -0.002019
vn 0.000000 1.000000 0.000000
vn -0.002779 0.999994 -0.002019
vn -0.003435 0.999994 0.000000
vn 0.000000 1.000000 0.000000
vn -0.003435 0.999994 0.000000
vn -0.002779 0.999994 0.002019
vn 0.000000 1.000000 0.000000
vn 0.005907 -0.999973 0.004292
vn 0.002256 -0.999973 0.006944
vn 0.000000 -1.000000 0.000000
vn 0.002256 -0.999973 0.006944
vn -0.002256 -0.999973 0.006944
vn 0.000000 -1.000000 0.000000
vn -0.002256 -0.999973 0.006944
vn -0.005907 -0.999973 0.004292
vn 0.000000 -1.000000 0.000000
vn -0.005907 -0.999973 0.004292
vn -0.007301 -0.999973 0.000000
vn 0.000000 -1.000000 0.000000
vn -0.007301 -0.999973 0.000000
vn -0.005907 -0.999973 -0.004292
vn 0.000000 -1.000000 0.000000
vn -0.005907 -0.999973 -0.004292
vn -0.002256 -0.999973 -0.006944
vn 0.000000 -1.000000 0.000000
vn -0.002256 -0.999973 -0.006944
vn 0.002256 -0.999973 -0.006944
vn 0.000000 -1.000000 0.000000
vn 0.002256 -0.999973 -0.006944
vn 0.005907 -0.999973 -0.004292
vn 0.000000 -1.000000 0.000000
vn 0.005907 -0.999973 -0.004292
vn 0.007301 -0.999973 0.000000
vn 0.000000 -1.000000 0.000000
vn 0.007301 -0.999973 0.000000
vn 0.005907 -0.999973 0.004292
vn 0.000000 -1.000000 0.000000
vn -0.002779 0.999994 0.002019
vn -0.001062 0.999994 0.003267
vn 0.000000 1.000000 0.000000
vn -0.001062 0.999994 0.003267
vn 0.001062 0.999994 0.003267
vn 0.000000 1.000000 0.000000
vn 0.001062 0.999994 0.003267
vn 0.002779 0.999994 0.002019
vn 0.000000 1.000000 0.000000
vn 0.002779 0.999994 0.002019
vn 0.003435 0.999994 0.000000
vn 0.000000 1.000000 0.000000
vn 0.003435 0.999994 0.000000
vn 0.002779 0.999994 -0.002019
vn 0.000000 1.000000 0.000000
vn 0.002779 0.999994 -0.002019
vn 0.001062 0.999994 -0.003267
vn 0.000000 1.000000 0.000000
vn 0.001062 0.999994 -0.003267
vn -0.001062 0.999994 -0.003267
vn 0.000000 1.000000 0.000000
vn -0.001062 0.999994 -0.003267
vn -0.002779 0.999994 -0.002019
vn 0.000000 1.000000 0.000000
vn -0.002779 0.999994 -0.002019
vn -0.003435 0.999994 0.000000
vn 0.000000 1.000000 0.000000
vn -0.003435 0.999994 0.000000
vn -0.002779 0.999994 0.002019
vn 0.000000 1.000000 0.000000
vn 0.005907 -0.999973 0.004292
vn 0.002256 -0.999973 0.006944
vn 0.000000 -1.000000 0.000000
vn 0.002256 -0.999973 0.006944
vn -0.002256 -0.999973 0.006944
vn 0.000000 -1.000000 0.000000
vn -0.002256 -0.999973 0.006944
vn -0.005907 -0.999973 0.004292
vn 0.000000 -1.000000 0.000000
vn -0.005907 -0.999973 0.004292
vn -0.007301 -0.999973 0.000000
vn 0.000000 -1.000000 0.000000
vn -0.007301 -0.999973 0.000000
vn -0.005907 -0.999973 -0.004292
vn 0.000000 -1.000000 0.000000
vn -0.005907 -0.999973 -0.004292
vn -0.002256 -0.999973 -0.006944
vn 0.000000 -1.000000 0.000000
vn -0.002256 -0.999973 -0.006944
vn 0.002256 -0.999973 -0.006944
vn 0.000000 -1.000000 0.000000
vn 0.002256 -0.999973 -0.006944
vn 0.005907 -0.999973 -0.004292
vn 0.000000 -1.000000 0.000000
vn 0.005907 -0.999973 -0.004292
vn 0.007301 -0.999973 0.000000
vn 0.000000 -1.000000 0.000000
vn 0.007301 -0.999973 0.000000
vn 0.005907 -0.999973 0.004292
vn 0.000000 -1.000000 0.000000
s off
g polySurface6
usemtl initialShadingGroup
f 1/1/1 2/2/2 11/3/3
f 2/2/4 3/4/5 11/3/6
f 3/4/7 4/5/8 11/3/9
f 4/5/10 5/6/11 11/3/12
f 5/6/13 6/7/14 11/3/15
f 6/7/16 7/8/17 11/3/18
f 7/8/19 8/9/20 11/3/21
f 8/9/22 9/10/23 11/3/24
f 9/10/25 10/11/26 11/3/27
f 10/11/28 1/1/29 11/3/30
f 9/12/31 8/13/32 12/14/33
f 8/13/34 7/15/35 12/14/36
f 7/15/37 6/16/38 12/14/39
f 6/16/40 5/17/41 12/14/42
f 5/17/43 4/18/44 12/14/45
f 4/18/46 3/19/47 12/14/48
f 3/19/49 2/20/50 12/14/51
f 2/20/52 1/21/53 12/14/54
f 1/21/55 10/22/56 12/14/57
f 10/22/58 9/12/59 12/14/60
f 13/23/61 14/24/62 23/25/63
f 14/24/64 15/26/65 23/25/66
f 15/26/67 16/27/68 23/25/69
f 16/27/70 17/28/71 23/25/72
f 17/28/73 18/29/74 23/25/75
f 18/29/76 19/30/77 23/25/78
f 19/30/79 20/31/80 23/25/81
f 20/31/82 21/32/83 23/25/84
f 21/32/85 22/33/86 23/25/87
f 22/33/88 13/23/89 23/25/90
f 21/34/91 20/35/92 24/36/93
f 20/35/94 19/37/95 24/36/96
f 19/37/97 18/38/98 24/36/99
f 18/38/100 17/39/101 24/36/102
f 17/39/103 16/40/104 24/36/105
f 16/40/106 15/41/107 24/36/108
f 15/41/109 14/42/110 24/36/111
f 14/42/112 13/43/113 24/36/114
f 13/43/115 22/44/116 24/36/117
f 22/44/118 21/34/119 24/36/120
f 25/45/121 26/46/122 35/47/123
f 26/46/124 27/48/125 35/47/126
f 27/48/127 28/49/128 35/47/129
f 28/49/130 29/50/131 35/47/132
f 29/50/133 30/51/134 35/47/135
f 30/51/136 31/52/137 35/47/138
f 31/52/139 32/53/140 35/47/141
f 32/53/142 33/54/143 35/47/144
f 33/54/145 34/55/146 35/47/147
f 34/55/148 25/45/149 35/47/150
f 33/56/151 32/57/152 36/58/153
f 32/57/154 31/59/155 36/58/156
f 31/59/157 30/60/158 36/58/159
f 30/60/160 29/61/161 36/58/162
f 29/61/163 28/62/164 36/58/165
f 28/62/166 27/63/167 36/58/168
f 27/63/169 26/64/170 36/58/171
f 26/64/172 25/65/173 36/58/174
f 25/65/175 34/66/176 36/58/177
f 34/66/178 33/56/179 36/58/180
f 37/67/181 38/68/182 47/69/183
f 38/68/184 39/70/185 47/69/186
f 39/70/187 40/71/188 47/69/189
f 40/71/190 41/72/191 47/69/192
f 41/72/193 42/73/194 47/69/195
f 42/73/196 43/74/197 47/69/198
f 43/74/199 44/75/200 47/69/201
f 44/75/202 45/76/203 47/69/204
f 45/76/205 46/77/206 47/69/207
f 46/77/208 37/67/209 47/69/210
f 45/78/211 44/79/212 48/80/213
f 44/79/214 43/81/215 48/80/216
f 43/81/217 42/82/218 48/80/219
f 42/82/220 41/83/221 48/80/222
f 41/83/223 40/84/224 48/80/225
f 40/84/226 39/85/227 48/80/228
f 39/85/229 38/86/230 48/80/231
f 38/86/232 37/87/233 48/80/234
f 37/87/235 46/88/236 48/80/237
f 46/88/238 45/78/239 48/80/240
f 49/89/241 50/90/242 59/91/243
f 50/90/244 51/92/245 59/91/246
f 51/92/247 52/93/248 59/91/249
f 52/93/250 53/94/251 59/91/252
f 53/94/253 54/95/254 59/91/255
f 54/95/256 55/96/257 59/91/258
f 55/96/259 56/97/260 59/91/261
f 56/97/262 57/98/263 59/91/264
f 57/98/265 58/99/266 59/91/267
f 58/99/268 49/89/269 59/91/270
f 57/100/271 56/101/272 60/102/273
f 56/101/274 55/103/275 60/102/276
f 55/103/277 54/104/278 60/102/279
f 54/104/280 53/105/281 60/102/282
f 53/105/283 52/106/284 60/102/285
f 52/106/286 51/107/287 60/102/288
f 51/107/289 50/108/290 60/102/291
f 50/108/292 49/109/293 60/102/294
f 49/109/295 58/110/296 60/102/297
f 58/110/298 57/100/299 60/102/300
