# This file uses centimeters as units for non-parametric coordinates.

mtllib cornice_brush.mtl
g default
v 0.026468 0.002616 0.020263
v 0.024744 0.002642 0.024920
v 0.029869 0.002609 0.021197
v 0.026445 0.002670 0.005310
v 0.021971 0.002670 0.005310
v 0.021971 0.002763 -0.015804
v 0.014128 0.002761 -0.015434
v 0.038098 0.002647 0.024920
v 0.033900 0.002629 0.022083
v 0.024744 0.002508 0.024920
v 0.014128 0.002646 0.017207
v 0.014128 0.002632 0.024920
v 0.014128 0.002646 0.032633
v 0.014128 0.002761 0.057779
v 0.045530 0.002713 0.039865
v 0.044119 0.002692 0.032419
v 0.040026 0.002660 0.026223
v 0.034469 0.002756 0.056987
v 0.030037 0.002763 0.058149
v 0.040026 0.002755 0.053231
v 0.044119 0.002741 0.047036
vt 0.507606 0.860124
vt 0.534549 0.844784
vt 0.522919 0.855285
vt 0.507748 0.858358
vt 0.507606 0.916095
vt 0.487600 0.916095
vt 0.487600 0.992353
vt 0.452522 0.991060
vt 0.559723 0.839889
vt 0.540949 0.851991
vt 0.522919 0.821982
vt 0.523019 0.911324
vt 0.507735 0.817318
vt 0.452522 0.696336
vt 0.487600 0.695147
vt 0.487600 0.765280
vt 0.507606 0.765280
vt 0.840082 0.163538
vt 0.452522 0.874342
vt 0.593078 0.775863
vt 0.586649 0.807866
vt 0.568344 0.834483
vt 0.559723 0.839889
vt 0.540949 0.826614
vt 0.452522 0.805353
vt 0.452522 0.839399
vt 0.452522 0.874342
vt 0.488097 0.991060
vt 0.540948 0.988731
vt 0.452522 0.695147
vt 0.532310 0.696812
vt 0.546037 0.701771
vt 0.452522 0.697525
vt 0.452522 0.805353
vt 0.452522 0.839399
vt 0.568344 0.716884
vt 0.586650 0.809520
vt 0.592836 0.909539
vt 0.568344 0.846136
vt 0.593078 0.908305
vn -0.000167 1.000000 0.000515
vn 0.000000 1.000000 0.000000
vn -0.000504 1.000000 0.000366
vn -0.000167 0.999999 0.001658
vn 0.000273 0.999999 0.001658
vn 0.000273 0.999995 0.003267
vn 0.001044 0.999994 0.003212
vn -0.001313 0.999999 0.000000
vn -0.000900 1.000000 0.000279
vn 0.001071 -0.999999 -0.000778
vn 0.000000 -1.000000 0.000000
vn 0.000374 -1.000000 -0.000931
vn -0.002218 -0.999973 -0.006944
vn -0.000579 -0.999976 -0.006944
vn -0.000579 -0.999994 -0.003523
vn 0.000355 -0.999994 -0.003523
vn 0.001044 0.999999 0.000758
vn -0.002046 0.999997 -0.001456
vn -0.001905 0.999998 -0.000737
vn -0.001502 0.999999 -0.000128
vn 0.002791 -0.999996 0.000000
vn 0.001913 -0.999998 -0.000593
vn -0.002219 -0.999996 -0.001612
vn -0.002218 -0.999998 0.000000
vn -0.002219 -0.999996 0.001612
vn -0.002218 -0.999974 0.006828
vn 0.001913 -0.999975 0.006782
vn 0.001106 -0.999975 0.006944
vn 0.001044 0.999994 -0.003267
vn -0.000521 0.999994 -0.003267
vn -0.001013 0.999995 -0.003115
vn 0.001044 0.999999 -0.000758
vn 0.001044 0.999999 0.000000
vn -0.001503 0.999995 -0.002784
vn -0.001905 0.999996 -0.002174
vn 0.004338 -0.999986 0.003152
vn 0.003193 -0.999995 0.000272
vn 0.004049 -0.999991 0.001567
vn 0.004049 -0.999981 0.004622
vn 0.003193 -0.999977 0.005917
vn -0.002218 -0.999974 0.006828
vn 0.001913 -0.999975 0.006782
vn 0.001106 -0.999975 0.006944
vn 0.001044 0.999994 -0.003267
vn -0.000521 0.999994 -0.003267
vn -0.001013 0.999995 -0.003115
vn 0.001044 0.999999 -0.000758
vn 0.001044 0.999999 0.000000
vn -0.001503 0.999995 -0.002784
vn -0.001905 0.999996 -0.002174
vn 0.004338 -0.999986 0.003152
vn 0.003193 -0.999995 0.000272
vn 0.004049 -0.999991 0.001567
vn 0.004049 -0.999981 0.004622
vn 0.003193 -0.999977 0.005917
vn 0.000000 0.000000 0.000000
vn 0.000000 0.000000 0.000000
vn 0.000000 0.000000 0.000000
vn 0.000000 0.000000 0.000000
vn 0.000000 0.000000 0.000000
vn 0.000000 0.000000 0.000000
vn 0.000000 0.000000 0.000000
vn 0.000000 0.000000 0.000000
vn 0.000000 0.000000 0.000000
vn 0.000000 0.000000 0.000000
vn 0.000000 0.000000 0.000000
vn 0.000000 0.000000 0.000000
vn 0.000000 0.000000 0.000000
vn 0.000000 0.000000 0.000000
vn 0.000000 0.000000 0.000000
vn 0.000000 0.000000 0.000000
vn 0.000000 0.000000 0.000000
vn 0.000000 0.000000 0.000000
vn 0.000000 0.000000 0.000000
vn 0.000000 0.000000 0.000000
vn 0.000000 0.000000 0.000000
vn 0.000000 0.000000 0.000000
vn 0.000000 0.000000 0.000000
vn 0.000000 0.000000 0.000000
vn 0.000000 0.000000 0.000000
vn 0.000000 0.000000 0.000000
vn 0.000000 0.000000 0.000000
vn 0.000000 0.000000 0.000000
vn 0.000000 0.000000 0.000000
vn 0.000000 0.000000 0.000000
vn 0.000000 0.000000 0.000000
vn 0.000000 0.000000 0.000000
vn 0.000000 0.000000 0.000000
vn 0.000000 0.000000 0.000000
vn 0.000000 0.000000 0.000000
vn 0.000000 0.000000 0.000000
vn 0.000000 0.000000 0.000000
vn 0.000000 0.000000 0.000000
vn 0.000000 0.000000 0.000000
vn 0.000000 0.000000 0.000000
vn 0.000000 0.000000 0.000000
vn 0.000000 0.000000 0.000000
vn 0.000000 0.000000 0.000000
vn 0.000000 0.000000 0.000000
vn 0.000000 0.000000 0.000000
vn 0.000000 0.000000 0.000000
vn 0.000000 0.000000 0.000000
vn 0.000000 0.000000 0.000000
vn 0.000000 0.000000 0.000000
vn 0.000000 0.000000 0.000000
vn 0.000000 0.000000 0.000000
vn 0.000000 0.000000 0.000000
vn 0.000000 0.000000 0.000000
vn 0.000000 0.000000 0.000000
vn 0.000000 0.000000 0.000000
s 1
g cilinder_brush1:pCylinder7
usemtl initialShadingGroup
f 1/1/1 2/2/2 3/3/3
f 4/4/4 5/5/5 6/6/6 7/7/7 2/8/2 1/2/1
f 3/1/3 2/3/2 8/2/8 9/9/9
s 2
f 3/10/10 10/11/11 1/12/12
f 1/13/12 10/13/11 7/12/13 6/14/14 5/15/15 4/16/16
s 1
f 11/17/17 2/18/2 7/19/7
f 8/2/8 2/8/2 15/9/18 16/2/19 17/20/20
s 2
f 8/21/21 10/22/11 3/23/10 9/12/22
f 7/11/13 10/24/11 11/14/23
f 11/12/23 10/25/11 12/25/24
f 12/12/24 10/26/11 13/26/25
f 13/12/25 10/27/11 14/27/26
f 14/12/26 10/28/11 18/28/27 19/12/28
s 1
f 14/29/29 19/2/30 18/30/31 2/31/2
f 14/32/29 2/33/2 13/33/32
f 13/2/32 2/34/2 12/34/33
f 12/2/33 2/35/2 11/35/17
f 15/2/18 2/19/2 18/2/31 20/2/34 21/32/35
s 2
f 15/36/36 10/37/11 8/38/21 17/12/37 16/23/38
f 18/39/27 10/40/11 15/12/36 21/12/39 20/38/40
