# This file uses millimeters as units for non-parametric coordinates.

mtllib plane.mtl
g default
v -0.021568 0.000577 0.021568
v 0.021568 0.000577 0.021568
v -0.021568 0.000577 -0.021568
v 0.021568 0.000577 -0.021568
v 0.000000 0.000670 0.000000
v 0.000000 0.000484 -0.000000
vt 0.000000 0.000000
vt 1.000000 0.000000
vt 0.000000 1.000000
vt 1.000000 1.000000
vt 0.500000 0.500000
vt 0.000000 0.000000
vt 1.000000 0.000000
vt 0.500000 0.500000
vt 0.000000 1.000000
vt 1.000000 1.000000
vn -0.002153 0.999995 0.002153
vn 0.002153 0.999995 0.002153
vn -0.000000 1.000000 0.000000
vn -0.002153 0.999995 -0.002153
vn 0.002153 0.999995 -0.002153
vn -0.002153 -0.999995 -0.002153
vn 0.002153 -0.999995 -0.002153
vn -0.000000 -1.000000 0.000000
vn -0.002153 -0.999995 0.002153
vn 0.002153 -0.999995 0.002153
s 1
g pPlane3
usemtl initialShadingGroup
f 1/1/1 2/2/2 5/5/3
f 1/1/1 5/5/3 3/3/4
f 5/5/3 2/2/2 4/4/5
f 3/3/4 5/5/3 4/4/5
s 2
f 3/6/6 4/7/7 6/8/8
f 3/6/6 6/8/8 1/9/9
f 6/8/8 4/7/7 2/10/10
f 1/9/9 6/8/8 2/10/10
